<?xml version="1.0" encoding="UTF-8" standalone="no"?>
<svg
   xmlns:dc="http://purl.org/dc/elements/1.1/"
   xmlns:cc="http://creativecommons.org/ns#"
   xmlns:rdf="http://www.w3.org/1999/02/22-rdf-syntax-ns#"
   xmlns:svg="http://www.w3.org/2000/svg"
   xmlns="http://www.w3.org/2000/svg"
   viewBox="0 0 674.66669 709.33331"
   height="709.33331"
   width="674.66669"
   xml:space="preserve"
   id="svg2"
   version="1.1"><metadata
     id="metadata8"><rdf:RDF><cc:Work
         rdf:about=""><dc:format>image/svg+xml</dc:format><dc:type
           rdf:resource="http://purl.org/dc/dcmitype/StillImage" /></cc:Work></rdf:RDF></metadata><defs
     id="defs6" /><g
     transform="matrix(1.3333333,0,0,-1.3333333,0,709.33333)"
     id="g10"><g
       transform="scale(0.1)"
       id="g12"><path
         id="path14"
         style="fill:#a8a399;fill-opacity:1;fill-rule:evenodd;stroke:none"
         d="m 3657.65,2002.48 c 551.57,0 998.7,-447.14 998.7,-998.71 0,-551.567 -447.13,-998.69969 -998.7,-998.69969 -551.57,0 -998.7,447.13269 -998.7,998.69969 0,551.57 447.13,998.71 998.7,998.71 z m 0,-100.97 c 495.81,0 897.74,-401.93 897.74,-897.74 0,-495.805 -401.93,-897.735 -897.74,-897.735 -495.81,0 -897.74,401.93 -897.74,897.735 0,495.81 401.93,897.74 897.74,897.74" /><path
         id="path16"
         style="fill:#a8a399;fill-opacity:1;fill-rule:evenodd;stroke:none"
         d="m 3461.55,288.359 c -24.3,4.786 -110.47,10.282 -133.84,151.879 v 214.68 c 0,158.957 -252.12,126.391 -346.88,213.754 -77.8,71.734 -67.49,356.878 157.5,644.998 8.06,-35.53 5.49,-68.38 10.6,-99.56 78.13,11.46 193.99,-15.07 305.32,-38.52 -56.75,38 -140.5,77.5 -216,109.5 2.41,29.48 2.3,58.3 -3.75,116.25 220.76,141.65 601,170.49 856.5,3.75 -13.37,-18.3 -80.5,-66.13 -91.5,-108.75 23.48,0.07 94.25,38.5 153.75,71.25 54.97,-60.4 223.51,-199.77 225.09,-505.65 C 4379.32,874.984 4294.59,822.629 4154,796.211 4047.23,776.145 3991.14,726.422 3988.25,667.586 L 3977,438.836 c -3.79,-77.168 -27.25,-117.746 -127.5,-146.25 -2.5,80.375 -5,227.125 -24.37,240 -21.63,-21.75 -29.88,-133.172 -40.88,-197.25 -34.15,-2.648 -69.7,0.734 -101.62,6 -2.41,51.332 -8.06,186.519 -30,198.75 -22.63,-26.625 -13,-168 -20.63,-230.625 -33.17,-9.395 -60.34,-10.543 -95,-10.188 -11.92,63.903 -33.64,200.528 -58.13,211.872 -22.94,-23.532 -15.37,-134.75 -17.32,-222.786 z m 90.29,488.961 c 2.37,74 18.25,129.258 65.62,172.504 -4.5,-61.875 0.95,-137.164 7.5,-182.629 10.79,-53.277 25.5,-63.257 47.27,-3.14 13.32,40.843 17.52,119.664 16.48,182.019 49.88,-45.004 62.25,-114 61.88,-168.75 v -135 c -88.75,33 -120.5,22.5 -198.75,0 z m -288.75,451.88 c -167.25,-8.86 -203.75,-179.25 -182.5,-254.993 41.62,-68.758 374.5,-65.5 425.12,-14.25 30.63,49.373 -18.3,281.133 -242.62,269.243 z m 757.41,-8.85 c -85.08,2.68 -249.16,-59.15 -223.04,-253.647 77.1,-96.074 373.19,-65.406 429.29,9.899 16.75,83.498 -5.56,237.428 -206.25,243.748" /><path
         id="path18"
         style="fill:#ff6600;fill-opacity:1;fill-rule:evenodd;stroke:none"
         d="m 1631.09,2002.8 c 551.57,0 998.71,-447.13 998.71,-998.7 0,-551.569 -447.14,-998.70156 -998.71,-998.70156 -551.57,0 -998.699,447.13256 -998.699,998.70156 0,551.57 447.129,998.7 998.699,998.7 z m 0,-100.96 c 495.81,0 897.74,-401.93 897.74,-897.74 0,-495.807 -401.93,-897.737 -897.74,-897.737 -495.8,0 -897.735,401.93 -897.735,897.737 0,495.81 401.935,897.74 897.735,897.74" /><path
         id="path20"
         style="fill:#ff6600;fill-opacity:1;fill-rule:evenodd;stroke:none"
         d="m 1241.7,1512.55 c -55,12.99 -84.79,-53.08 -158.25,-98.25 58.88,130.12 111.96,201.97 228,209.24 176.25,11.04 149.12,-167.36 66.01,-158.24 -69.71,7.65 -104.01,-0.51 -156.01,-75 -7.13,27.61 -0.2,53.31 18,69.75 18.19,16.44 28.5,43.99 2.25,52.5" /><path
         id="path22"
         style="fill:#ff6600;fill-opacity:1;fill-rule:evenodd;stroke:none"
         d="m 1653.26,1231.92 c -40.57,6.76 -110.33,28.09 -180.13,205.39 25.84,-19.34 73.57,-42.57 120,-42 46.44,0.57 188.48,67.29 199.5,-61.51 5.67,-66.22 -51.65,-116.51 -139.37,-101.88" /><path
         id="path24"
         style="fill:#ff6600;fill-opacity:1;fill-rule:evenodd;stroke:none"
         d="m 1894.31,1662.25 c -219.02,97.97 -321.96,87.39 -565.51,30 159.64,-13.41 326.01,-23.14 333,-120 1,-24.5 -23.5,-83.5 -150,-33 17,-46 58.75,-80.75 168,-84 88.03,-0.73 130.49,36.27 190.5,24.75 63.6,-12.13 150.32,-70.52 99,-151.5 -22.5,19.75 -75,92.75 -174.75,84 135.76,-99.25 69.54,-185.63 126.01,-210.75 85.84,-38.17 96.74,-76.51 96.74,-136.51 0.56,-42.9 -16.31,-99.744 -45,-98.998 -31.5,1 -45,32 -27,155.998 -24,-63.75 -72.23,-101.7 -102.23,-149.705 -41.25,-62.25 -48.51,-134.543 -91.26,-183.293 -21.19,-23.129 -68.25,-23 -49.5,37.5 26.5,71.246 92.75,104.25 142.5,179.998 38.75,60.25 52.74,110.75 51,178.5 -38.13,-47.75 -67.25,-97.75 -207,-107.25 -100.98,0.83 -131.14,24.28 -211.86,27.8 -78.25,7.25 -417.44,-34.66 -446.94,-341.653 -23.38,-295.024 319.18,-509.383 567.3,-505.899 91.37,-1.625 155.75,7.25 237,57 81.06,48.907 105,89 243,111 -34.82,23.004 -61.88,33.629 -130.5,33 -32.13,0.625 -57.5,-13 -115.5,-10.5 -45.38,3.375 -52.78,58.657 0,81 52.77,22.344 126.07,-8.449 210.75,-9.808 218.8,-4.735 215.32,182.75 335.25,234.812 -61.56,9.563 -107.06,-7.258 -151.5,-33 -150.47,-87.179 -197.65,-26.039 -132,17.996 33.5,17.5 67,28.254 100.5,52.5 70.76,58.012 151.59,218.892 153,334.502 1.23,101.39 -48.01,244.89 -141.38,325.24 -46.5,40.02 -46.6,62.35 -62.62,120.27 -17,-64.25 1.25,-137.51 39.75,-201.76 24.5,-47.13 -17.75,-94.24 -30.75,-50.25 -32,105 -52,225.75 -258,342.01" /><path
         id="path26"
         style="fill:#1cc940;fill-opacity:1;fill-rule:evenodd;stroke:none"
         d="m 1003.09,3934.89 c 551.57,0 998.71,-447.13 998.71,-998.7 0,-551.57 -447.14,-998.7 -998.71,-998.7 -551.567,0 -998.69937,447.13 -998.69937,998.7 0,551.57 447.13237,998.7 998.69937,998.7 z m 0,-100.96 c 495.81,0 897.74,-401.93 897.74,-897.74 0,-495.81 -401.93,-897.74 -897.74,-897.74 -495.805,0 -897.735,401.93 -897.735,897.74 0,495.81 401.93,897.74 897.735,897.74" /><path
         id="path28"
         style="fill:#1cc940;fill-opacity:1;fill-rule:evenodd;stroke:none"
         d="m 657.035,2368.96 c 297.41,35.19 332.039,383.2 89.68,329.63 -68.129,-18.74 -121.352,-66.26 -248.262,-70.93 -189.473,7.86 -296.144,179.75 -141.863,308.55 -103.555,87.97 -70.902,230.54 88.664,276.63 -95.918,167.75 73.824,358.43 287.273,241.17 91.274,227.68 323.103,243.9 457.513,81.57 126.99,41.88 264.34,32.48 303.57,-148.25 80.57,-12.38 134.56,-53.59 91.88,-148.13 119.21,-53.29 145.38,-157.39 84.37,-268.12 99.25,-119.88 71.12,-271.96 -172.5,-272.82 -363.85,170.67 -479.39,-232.44 -90.94,-319.69 -143.14,5.78 -174.28,-13.15 -130.92,-149.54 -206.86,106.16 -327.531,121.07 -442.828,2.35 10.332,102.67 -21.801,152.13 -175.637,137.58 z m 224.438,441.82 c -48.227,0.18 -103.559,5.45 -130.965,13.14 -30.414,8.53 -55.106,32.24 -44.723,57.91 10.375,25.67 43.121,22.38 72.403,10.54 29.277,-11.84 65.082,-40.05 103.285,-81.59 z m 16.007,167.62 c -38.925,15.09 -69.601,21.73 -89.367,36.42 -21.945,16.31 -39.234,50.63 -22.898,68.16 16.332,17.53 50.226,3.56 70.223,-15.07 19.996,-18.64 24.027,-44.1 42.042,-89.51 z m 95.458,106.58 c -12.422,21.03 -22.879,31.58 -24.891,46.11 -2.238,16.11 6.476,39 20.738,39.38 14.255,0.39 26.035,-17.53 26.475,-33.79 0.44,-16.27 -9.15,-26.5 -22.322,-51.7 z m 154.302,-85.27 c 25.71,26.27 53.97,35.27 64.46,54.24 11.65,21.06 11.14,58.62 -8.34,66.72 -19.48,8.1 -46.36,-14.01 -50.8,-37.66 -4.97,-26.45 -7.42,-40.34 -5.32,-83.3 z m 25.06,-157.41 c 48.04,4.16 101.35,1.8 127.09,15.47 27.89,14.82 45.68,39.49 33.22,64.22 -12.46,24.72 -44.82,18.74 -73.02,4.52 -28.2,-14.21 -52.65,-39.66 -87.29,-84.21" /><path
         id="path30"
         style="fill:#ffcc66;fill-opacity:1;fill-rule:evenodd;stroke:none"
         d="m 2504.52,5314.93 c 551.57,0 998.69,-447.13 998.69,-998.7 0,-551.57 -447.12,-998.71 -998.69,-998.71 -551.58,0 -998.71,447.14 -998.71,998.71 0,551.57 447.13,998.7 998.71,998.7 z m 0,-100.97 c 495.8,0 897.73,-401.92 897.73,-897.73 0,-495.81 -401.93,-897.74 -897.73,-897.74 -495.81,0 -897.74,401.93 -897.74,897.74 0,495.81 401.93,897.73 897.74,897.73" /><path
         id="path32"
         style="fill:#ffcc66;fill-opacity:1;fill-rule:evenodd;stroke:none"
         d="m 2504.52,4585.91 c 148.94,0 269.68,-120.74 269.68,-269.68 0,-148.94 -120.74,-269.69 -269.68,-269.69 -148.95,0 -269.7,120.75 -269.7,269.69 0,148.94 120.75,269.68 269.7,269.68" /><path
         id="path34"
         style="fill:#ffcc66;fill-opacity:1;fill-rule:evenodd;stroke:none"
         d="m 2365.92,3950.1 c -3.02,-46.94 -7.49,-89.39 1.82,-142.22 20.06,-52.5 46.46,-69.84 99.33,-97.2 0.83,-55.24 -15.61,-109.84 -42.49,-170.5 164.88,54.41 239.47,158.54 260.09,254.11 -60.03,41.64 -86.03,55.42 -84.04,129.69 6.67,37.73 30.03,50.34 64.44,40.07 30.93,-35.45 57.66,-68.73 101.47,-99.67 51.22,-23.15 82.17,-16.86 138.97,0.96 39.49,-38.63 66.29,-88.96 89.92,-150.96 78.73,154.75 58.33,281.2 5.66,363.57 -71.94,-12.72 -121.11,-14.88 -151,32.87 -16.59,29.27 -8.06,65.84 15.48,70.92 46.93,-3.2 89.37,-7.83 142.22,1.27 52.59,19.86 70.03,46.18 97.59,98.95 55.24,0.62 109.78,-16.03 170.33,-43.15 -53.77,165.09 -157.62,240.07 -253.1,261.07 -41.87,-59.87 -55.75,-85.82 -130.01,-83.53 -26.49,1.7 -54.85,28.36 -38.96,60.83 35.6,30.75 69.01,57.32 100.15,100.98 23.39,51.12 17.26,82.1 -0.3,138.98 38.81,39.32 89.28,65.87 151.39,89.21 -154.38,79.45 -280.93,59.65 -363.55,7.38 12.38,-72.01 24.16,-117.08 -31.33,-155.72 -22.26,-13.71 -62.52,-6.61 -67.53,21.87 3.85,46.89 4.19,90.76 -4.18,143.73 -19.13,52.85 -45.21,70.66 -97.6,98.94 0.15,55.25 17.54,109.56 45.5,169.73 -165.81,-51.49 -242.23,-154.29 -264.54,-249.48 59.29,-42.69 88.41,-58.61 85.1,-132.83 -0.96,-27.43 -35.87,-54.85 -67.96,-39.34 -30.93,35.44 -56.17,72.47 -99.99,103.39 -51.23,23.14 -82.18,16.84 -138.98,-1.01 -39.51,38.63 -66.32,88.95 -89.97,150.94 -78.67,-154.78 -58.23,-281.22 -5.54,-363.57 71.94,8.25 115.48,17.53 150.64,-28.33 15.66,-20.47 12.01,-73.28 -11.89,-79.14 -46.95,2.88 -89.42,7.22 -142.22,-2.25 -52.44,-20.22 -69.7,-46.67 -96.9,-99.62 -55.23,-1 -109.89,15.27 -170.62,41.97 54.9,-164.71 159.26,-238.98 254.89,-259.32 41.46,60.16 55.15,86.2 129.43,84.43 34.41,-8.94 43.54,-38.91 36.91,-62.95 -35.42,-30.96 -67.17,-53.23 -99.56,-101.58 -20.09,-49 -12.85,-85.67 1.11,-138.97 -37.83,-41.79 -88.14,-68.64 -150.85,-90.1 154.84,-78.54 281.27,-58 363.58,-5.23 -14.69,69.67 -19.13,100.07 32.69,151.03 22.78,16.7 64.12,5.45 64.4,-20.22 z m 138.6,693.01 c 180.53,0 326.88,-146.35 326.88,-326.88 0,-180.53 -146.35,-326.89 -326.88,-326.89 -180.54,0 -326.89,146.36 -326.89,326.89 0,180.53 146.35,326.88 326.89,326.88" /><path
         id="path36"
         style="fill:#1c91c9;fill-opacity:1;fill-rule:evenodd;stroke:none"
         d="m 4056.91,3989.55 c 551.57,0 998.7,-447.13 998.7,-998.7 0,-551.57 -447.13,-998.7 -998.7,-998.7 -551.57,0 -998.7,447.13 -998.7,998.7 0,551.57 447.13,998.7 998.7,998.7 z m 0,-100.96 c 495.81,0 897.74,-401.93 897.74,-897.74 0,-495.81 -401.93,-897.74 -897.74,-897.74 -495.81,0 -897.74,401.93 -897.74,897.74 0,495.81 401.93,897.74 897.74,897.74" /><path
         id="path38"
         style="fill:#1c91c9;fill-opacity:1;fill-rule:evenodd;stroke:none"
         d="m 4249.27,3738.54 c -65.75,-287.91 -59.18,-405.58 55.16,-522.06 223.85,-228.03 277.21,-373.48 266.09,-542.94 -17.08,-260.04 -254.82,-421.77 -501.25,-430 -299.05,-10 -465.2,186.57 -511.24,395 -36.4,164.77 -19.92,347.87 142.27,602.26 134.74,211.34 317.04,343.67 548.97,497.74 z m 99.64,-826.68 c 47.72,11.09 110.59,-57.32 132.6,-143.84 22,-86.52 -23.23,-153.72 -88.95,-155.09 -65.73,-1.38 -110.76,45.91 -115.1,131.34 -4.33,85.43 23.74,156.52 71.45,167.59" /></g></g></svg>